<svg width="26" height="20" viewBox="0 0 26 20" fill="none" xmlns="http://www.w3.org/2000/svg">
    <path d="M25.7141 8.21436V8.92864C25.7141 9.52038 25.2344 10.0001 24.6427 10.0001H24.2856L23.1198 18.1602C22.969 19.2159 22.0649 20 20.9985 20H4.71559C3.64922 20 2.74512 19.2159 2.59427 18.1602L1.42856 10.0001H1.07142C0.479684 10.0001 0 9.52038 0 8.92864V8.21436C0 7.62262 0.479684 7.14294 1.07142 7.14294H4.0777L8.84463 0.588471C9.30869 -0.0495607 10.2021 -0.190676 10.8402 0.273384C11.4783 0.737443 11.6193 1.63088 11.1553 2.26895L7.61053 7.14294H18.1036L14.5588 2.26891C14.0948 1.63088 14.2359 0.737399 14.874 0.273339C15.512 -0.190721 16.4055 -0.0496499 16.8695 0.588426L21.6364 7.14294H24.6427C25.2344 7.14294 25.7141 7.62262 25.7141 8.21436ZM13.9285 16.0715V11.0715C13.9285 10.4797 13.4488 10.0001 12.8571 10.0001C12.2653 10.0001 11.7856 10.4797 11.7856 11.0715V16.0715C11.7856 16.6632 12.2653 17.1429 12.8571 17.1429C13.4488 17.1429 13.9285 16.6632 13.9285 16.0715ZM18.9284 16.0715V11.0715C18.9284 10.4797 18.4488 10.0001 17.857 10.0001C17.2653 10.0001 16.7856 10.4797 16.7856 11.0715V16.0715C16.7856 16.6632 17.2653 17.1429 17.857 17.1429C18.4488 17.1429 18.9284 16.6632 18.9284 16.0715ZM8.92851 16.0715V11.0715C8.92851 10.4797 8.44883 10.0001 7.85709 10.0001C7.26536 10.0001 6.78567 10.4797 6.78567 11.0715V16.0715C6.78567 16.6632 7.26536 17.1429 7.85709 17.1429C8.44883 17.1429 8.92851 16.6632 8.92851 16.0715Z" fill="black"/>
</svg>