<svg width="18" height="18" viewBox="0 0 18 18" fill="none" xmlns="http://www.w3.org/2000/svg">
    <path d="M6 0H2C1.46957 0 0.960859 0.210714 0.585786 0.585786C0.210714 0.960859 0 1.46957 0 2V6C0 6.53043 0.210714 7.03914 0.585786 7.41421C0.960859 7.78929 1.46957 8 2 8H6C6.53043 8 7.03914 7.78929 7.41421 7.41421C7.78929 7.03914 8 6.53043 8 6V2C8 1.46957 7.78929 0.960859 7.41421 0.585786C7.03914 0.210714 6.53043 0 6 0ZM2 6V2H6V6H2Z" fill="#A7A9BE"/>
    <path d="M16 0H12C11.4696 0 10.9609 0.210714 10.5858 0.585786C10.2107 0.960859 10 1.46957 10 2V6C10 6.53043 10.2107 7.03914 10.5858 7.41421C10.9609 7.78929 11.4696 8 12 8H16C16.5304 8 17.0391 7.78929 17.4142 7.41421C17.7893 7.03914 18 6.53043 18 6V2C18 1.46957 17.7893 0.960859 17.4142 0.585786C17.0391 0.210714 16.5304 0 16 0ZM12 6V2H16V6H12Z" fill="#A7A9BE"/>
    <path d="M6 10H2C1.46957 10 0.960859 10.2107 0.585786 10.5858C0.210714 10.9609 0 11.4696 0 12V16C0 16.5304 0.210714 17.0391 0.585786 17.4142C0.960859 17.7893 1.46957 18 2 18H6C6.53043 18 7.03914 17.7893 7.41421 17.4142C7.78929 17.0391 8 16.5304 8 16V12C8 11.4696 7.78929 10.9609 7.41421 10.5858C7.03914 10.2107 6.53043 10 6 10ZM2 16V12H6V16H2Z" fill="#A7A9BE"/>
    <path d="M16 10H12C11.4696 10 10.9609 10.2107 10.5858 10.5858C10.2107 10.9609 10 11.4696 10 12V16C10 16.5304 10.2107 17.0391 10.5858 17.4142C10.9609 17.7893 11.4696 18 12 18H16C16.5304 18 17.0391 17.7893 17.4142 17.4142C17.7893 17.0391 18 16.5304 18 16V12C18 11.4696 17.7893 10.9609 17.4142 10.5858C17.0391 10.2107 16.5304 10 16 10ZM12 16V12H16V16H12Z" fill="#A7A9BE"/>
</svg>
